<svg xmlns="http://www.w3.org/2000/svg" viewBox="0 0 24 24" fill="none" stroke="currentColor" stroke-width="1.75" stroke-linecap="round" stroke-linejoin="round">
  <symbol id="icon-shield" viewBox="0 0 24 24">
    <path d="M12 22s8-4 8-10V5l-8-3-8 3v7c0 6 8 10 8 10z"/>
    <path d="M9 12l2 2 4-4"/>
  </symbol>
  <symbol id="icon-clock" viewBox="0 0 24 24">
    <circle cx="12" cy="12" r="10"/>
    <path d="M12 6v6l4 2"/>
  </symbol>
  <symbol id="icon-receipt" viewBox="0 0 24 24">
    <path d="M4 2v20l3-2 3 2 3-2 3 2 3-2 3 2V2l-3 2-3-2-3 2-3-2-3 2-3-2z"/>
    <path d="M8 10h8M8 14h5"/>
  </symbol>
</svg>
